<svg id="Capa_1" data-name="Capa 1" xmlns="http://www.w3.org/2000/svg" viewBox="0 0 387.97 201.39"><defs><style>.cls-1{fill:#1d1d1b;}</style></defs><path class="cls-1" d="M137.55,289.15c26.7,0,45.62,18.93,45.62,45.87s-18.92,45.87-45.62,45.87S91.93,362,91.93,335,110.86,289.15,137.55,289.15Zm0,76.2c16.42,0,45.62-12.53,45.62-30.33s-29.2-30.45-45.62-30.45S109.48,317.23,109.48,335,121.13,365.35,137.55,365.35Z" transform="translate(-91.93 -289.15)"/><path class="cls-1" d="M232.41,380.89c-9,0-15.79-3.13-20.55-8.65v28.58H195.57v-85.1h16.29v6.89c4.76-5.51,11.53-8.77,20.55-8.77,18.17,0,32.08,14.16,32.08,33.59S250.58,380.89,232.41,380.89ZM230,328.75c-10.65,0-18.17,7.9-18.17,18.8s7.52,18.68,18.17,18.68,18.17-7.9,18.17-18.68S240.68,328.75,230,328.75Z" transform="translate(-91.93 -289.15)"/><path class="cls-1" d="M289.55,352.69c2.13,8.15,9,13.54,18.17,13.54a18.64,18.64,0,0,0,15.42-7.4l11.9,9.65c-6,8.15-16.29,12.91-28.07,12.91-20.43,0-34.46-14.16-34.46-34.21s14-34,34.08-34c20.93,0,32.84,15.29,32.84,32.09a36.19,36.19,0,0,1-.75,7.39Zm33.71-12.28c-1.88-7.14-7.77-12.16-16.42-12.16s-14.78,4.89-17,12.16Z" transform="translate(-91.93 -289.15)"/><path class="cls-1" d="M351.33,378.88V315.72h16.29v7.77c5-6.14,12.28-9.65,21.3-9.65,16.42,0,26.32,10,26.32,30.58v34.46H399V345.55c0-11.53-5.14-16.67-13.91-16.67-10,0-17.42,7.9-17.42,18.67v31.33Z" transform="translate(-91.93 -289.15)"/><path class="cls-1" d="M264.49,400.82h43.24c13.78,0,21.55,5.76,21.55,17.54,0,8.52-4.13,14.41-10.4,18.3,10.78,3.26,17.3,12.4,17.3,25.56,0,15.79-10.53,26.32-26.32,26.32H264.49Zm41,27.82c4.39-1.76,6.27-5,6.27-7.9,0-3.26-2.26-4.89-6.14-4.89H282v22.94Zm-.37,44.86c8.39,0,13.41-4.89,13.41-12.91s-5-12.78-13.41-12.78H296L282,454.08V473.5Z" transform="translate(-91.93 -289.15)"/><path class="cls-1" d="M376.77,423.5c9,0,15.8,3.26,20.56,8.77v-6.89h16.29v63.16H397.33V481.9c-4.76,5.51-11.53,8.65-20.56,8.65-18.17,0-32.08-14.16-32.08-33.46S358.6,423.5,376.77,423.5Zm2.38,52.38c10.66,0,18.18-7.89,18.18-18.67s-7.52-18.8-18.18-18.8S361,446.31,361,457.21,368.5,475.88,379.15,475.88Z" transform="translate(-91.93 -289.15)"/><path class="cls-1" d="M429.4,488.54V425.38h16.29v7.39a24.57,24.57,0,0,1,19.68-9.27c5.76,0,10.65,1.38,14.54,4.39l-8.27,14.28a15.15,15.15,0,0,0-10.28-3.63c-9.27,0-15.67,7.89-15.67,18.67v31.33Z" transform="translate(-91.93 -289.15)"/></svg>